<svg width="158" height="45" viewBox="0 0 158 45" fill="none" xmlns="http://www.w3.org/2000/svg">
<path d="M6.12216 4.45455L3.70739 19H0.191761L2.60653 4.45455H6.12216ZM5.91442 19L8.32919 4.45455H14.3945C15.4835 4.45455 16.3713 4.60843 17.0579 4.91619C17.7444 5.22396 18.2274 5.65483 18.5067 6.20881C18.7908 6.76278 18.8713 7.40436 18.7482 8.13352C18.6488 8.68277 18.4452 9.17519 18.1374 9.6108C17.8344 10.0417 17.4556 10.4015 17.0011 10.6903C16.5465 10.9744 16.0446 11.1733 15.4954 11.2869L15.467 11.429C16.0541 11.4527 16.5726 11.6089 17.0224 11.8977C17.4769 12.1866 17.8131 12.5914 18.0309 13.1122C18.2487 13.6283 18.2984 14.2344 18.18 14.9304C18.0522 15.7116 17.7373 16.41 17.2354 17.0256C16.7383 17.6364 16.0825 18.1193 15.2681 18.4744C14.4537 18.8248 13.5115 19 12.4414 19H5.91442ZM9.913 16.1662H12.0863C12.8391 16.1662 13.4215 16.0218 13.8335 15.733C14.2501 15.4394 14.4963 15.0369 14.5721 14.5256C14.6336 14.1515 14.6005 13.8295 14.4727 13.5597C14.3448 13.285 14.1317 13.0743 13.8335 12.9276C13.5352 12.776 13.1587 12.7003 12.7042 12.7003H10.467L9.913 16.1662ZM10.8576 10.4347H12.8107C13.1895 10.4347 13.5375 10.3707 13.8548 10.2429C14.1767 10.1151 14.4419 9.9304 14.6502 9.68892C14.8633 9.44744 14.9959 9.15625 15.0479 8.81534C15.1284 8.32765 15.0172 7.94413 14.7141 7.66477C14.4111 7.38542 13.9684 7.24574 13.386 7.24574H11.3832L10.8576 10.4347ZM25.1261 4.45455L22.7113 19H19.1957L21.6104 4.45455H25.1261ZM26.6087 4.45455H30.5362L32.5959 10.5412H32.745L36.8146 4.45455H40.7422L33.8175 14.142L33.0078 19H29.5135L30.3303 14.142L26.6087 4.45455ZM39.8011 19L42.2159 4.45455H52.358L51.875 7.30966H45.2486L44.7656 10.2926H50.8736L50.3906 13.1548H44.2827L43.7997 16.1449H50.4261L49.9432 19H39.8011ZM67.0455 11.9545C66.7803 13.5218 66.2595 14.8452 65.483 15.9247C64.7112 16.9995 63.7713 17.8139 62.6634 18.3679C61.5601 18.9219 60.3741 19.1989 59.1051 19.1989C57.7652 19.1989 56.6051 18.9006 55.625 18.304C54.6449 17.7074 53.9323 16.8385 53.4872 15.6974C53.0469 14.5563 52.9616 13.1714 53.2315 11.5426C53.4872 9.97538 54.0009 8.64962 54.7727 7.56534C55.5492 6.48106 56.4938 5.65956 57.6065 5.10085C58.724 4.5374 59.9219 4.25568 61.2003 4.25568C62.5308 4.25568 63.6837 4.55634 64.6591 5.15767C65.6392 5.759 66.3494 6.63258 66.7898 7.77841C67.2301 8.92424 67.3153 10.3163 67.0455 11.9545ZM63.5298 11.5426C63.6766 10.6288 63.6766 9.85938 63.5298 9.23438C63.3878 8.60938 63.1084 8.13826 62.6918 7.82102C62.2751 7.49905 61.733 7.33807 61.0653 7.33807C60.3267 7.33807 59.6591 7.52036 59.0625 7.88494C58.4706 8.24479 57.9759 8.77036 57.5781 9.46165C57.1804 10.1482 56.9034 10.9792 56.7472 11.9545C56.5862 12.8778 56.5814 13.6473 56.733 14.2628C56.8892 14.8783 57.1804 15.3423 57.6065 15.6548C58.0327 15.9626 58.5748 16.1165 59.233 16.1165C59.9669 16.1165 60.6274 15.9389 61.2145 15.5838C61.8016 15.2287 62.2917 14.7102 62.6847 14.0284C63.0824 13.3466 63.3641 12.518 63.5298 11.5426ZM70.3409 4.45455H74.6946L76.8963 13.4602H77.0668L82.2514 4.45455H86.6051L84.1903 19H80.767L82.2514 10.0653H82.1307L77.1733 18.9077H74.9929L72.9759 10.0156H72.8551L71.3494 19H67.9261L70.3409 4.45455ZM92.3136 4.45455L89.8988 19H86.3832L88.7979 4.45455H92.3136ZM92.1058 19L94.5206 4.45455H104.663L104.18 7.30966H97.5533L97.0703 10.2926H103.178L102.695 13.1548H96.5874L96.1044 16.1449H102.731L102.248 19H92.1058Z" fill="#243949"/>
<path d="M26.6065 26.4545H30.9602L33.1619 35.4602H33.3324L38.517 26.4545H42.8707L40.456 41H37.0327L38.517 32.0653H38.3963L33.4389 40.9077H31.2585L29.2415 32.0156H29.1207L27.6151 41H24.1918L26.6065 26.4545ZM42.6488 41L45.0636 26.4545H55.2056L54.7227 29.3097H48.0962L47.6133 32.2926H53.7212L53.2383 35.1548H47.1303L46.6474 38.1449H53.2738L52.7908 41H42.6488ZM58.1388 41H54.3604L61.6829 26.4545H66.3633L68.8562 41H65.0778L63.4798 30.1193H63.3661L58.1388 41ZM58.5934 35.2756H66.4911L66.0366 37.946H58.1388L58.5934 35.2756ZM70.0618 29.3097L70.5447 26.4545H82.8388L82.3558 29.3097H77.9453L76.0135 41H72.5476L74.4794 29.3097H70.0618ZM86.4379 41L88.8526 26.4545H92.3683L91.4023 32.2926H97.1339L98.0998 26.4545H101.608L99.1935 41H95.685L96.6509 35.1548H90.9194L89.9535 41H86.4379ZM116.299 33.9545C116.034 35.5218 115.513 36.8452 114.737 37.9247C113.965 38.9995 113.025 39.8139 111.917 40.3679C110.814 40.9219 109.628 41.1989 108.359 41.1989C107.019 41.1989 105.859 40.9006 104.879 40.304C103.899 39.7074 103.186 38.8385 102.741 37.6974C102.301 36.5563 102.216 35.1714 102.485 33.5426C102.741 31.9754 103.255 30.6496 104.027 29.5653C104.803 28.4811 105.748 27.6596 106.86 27.1009C107.978 26.5374 109.176 26.2557 110.454 26.2557C111.785 26.2557 112.938 26.5563 113.913 27.1577C114.893 27.759 115.603 28.6326 116.044 29.7784C116.484 30.9242 116.569 32.3163 116.299 33.9545ZM112.784 33.5426C112.931 32.6288 112.931 31.8594 112.784 31.2344C112.642 30.6094 112.362 30.1383 111.946 29.821C111.529 29.4991 110.987 29.3381 110.319 29.3381C109.581 29.3381 108.913 29.5204 108.316 29.8849C107.725 30.2448 107.23 30.7704 106.832 31.4616C106.434 32.1482 106.157 32.9792 106.001 33.9545C105.84 34.8778 105.835 35.6473 105.987 36.2628C106.143 36.8783 106.434 37.3423 106.86 37.6548C107.287 37.9626 107.829 38.1165 108.487 38.1165C109.221 38.1165 109.881 37.9389 110.468 37.5838C111.056 37.2287 111.546 36.7102 111.939 36.0284C112.336 35.3466 112.618 34.518 112.784 33.5426ZM128.395 26.4545H131.903L130.348 35.8366C130.168 36.9209 129.753 37.8655 129.105 38.6705C128.461 39.4706 127.639 40.0909 126.64 40.5312C125.641 40.9669 124.529 41.1847 123.302 41.1847C122.071 41.1847 121.032 40.9669 120.184 40.5312C119.337 40.0909 118.724 39.4706 118.345 38.6705C117.966 37.8655 117.864 36.9209 118.039 35.8366L119.595 26.4545H123.11L121.598 35.5312C121.517 36.0331 121.555 36.4806 121.711 36.8736C121.872 37.2618 122.133 37.5696 122.493 37.7969C122.852 38.0194 123.293 38.1307 123.814 38.1307C124.339 38.1307 124.82 38.0194 125.255 37.7969C125.691 37.5696 126.051 37.2618 126.335 36.8736C126.619 36.4806 126.801 36.0331 126.882 35.5312L128.395 26.4545ZM141.23 30.8438C141.268 30.3087 141.126 29.8944 140.804 29.6009C140.487 29.3073 139.985 29.1605 139.298 29.1605C138.844 29.1605 138.455 29.2197 138.134 29.3381C137.812 29.4517 137.558 29.6127 137.374 29.821C137.189 30.0246 137.073 30.2614 137.026 30.5312C136.983 30.7443 136.995 30.9337 137.061 31.0994C137.127 31.2652 137.243 31.4119 137.409 31.5398C137.58 31.6676 137.79 31.7789 138.041 31.8736C138.297 31.9683 138.583 32.0511 138.901 32.1222L140.094 32.4062C140.785 32.5625 141.384 32.7708 141.891 33.0312C142.402 33.2869 142.816 33.5971 143.134 33.9616C143.451 34.3215 143.669 34.7358 143.787 35.2045C143.905 35.6733 143.915 36.1989 143.815 36.7812C143.664 37.6998 143.302 38.4882 142.729 39.1463C142.161 39.8045 141.417 40.3087 140.499 40.6591C139.585 41.0095 138.522 41.1847 137.31 41.1847C136.098 41.1847 135.068 41.0024 134.22 40.6378C133.377 40.2685 132.767 39.7121 132.388 38.9688C132.009 38.2254 131.907 37.2879 132.082 36.1562H135.442C135.39 36.625 135.449 37.0156 135.619 37.3281C135.795 37.6406 136.064 37.8774 136.429 38.0384C136.794 38.1993 137.234 38.2798 137.75 38.2798C138.223 38.2798 138.638 38.2159 138.993 38.0881C139.353 37.9602 139.639 37.7827 139.852 37.5554C140.07 37.3281 140.203 37.0677 140.25 36.7741C140.297 36.5043 140.252 36.2699 140.115 36.071C139.982 35.8722 139.755 35.6993 139.433 35.5526C139.116 35.4058 138.699 35.2732 138.183 35.1548L136.727 34.7997C135.525 34.5062 134.613 34.0374 133.993 33.3935C133.377 32.7495 133.16 31.8759 133.339 30.7727C133.491 29.8684 133.865 29.0777 134.462 28.4006C135.063 27.7235 135.823 27.1979 136.741 26.8239C137.665 26.4451 138.68 26.2557 139.788 26.2557C140.915 26.2557 141.862 26.4474 142.629 26.831C143.401 27.2098 143.957 27.7448 144.298 28.4361C144.644 29.1226 144.743 29.9252 144.597 30.8438H141.23ZM144.895 41L147.31 26.4545H157.452L156.969 29.3097H150.342L149.859 32.2926H155.967L155.484 35.1548H149.376L148.893 38.1449H155.52L155.037 41H144.895Z" fill="#243949"/>
</svg>
